<svg xmlns="http://www.w3.org/2000/svg" width="14.502" height="17.591" viewBox="0 0 14.502 17.591"><defs><style>.a{fill:#5a289c;}</style></defs><g transform="translate(0)"><path class="a" d="M59.341,4.359,55.088.105A.359.359,0,0,0,54.834,0H46.689a1.747,1.747,0,0,0-1.745,1.745v14.1a1.747,1.747,0,0,0,1.745,1.745H57.7a1.747,1.747,0,0,0,1.745-1.745V4.613A.359.359,0,0,0,59.341,4.359ZM55.193,1.226l3.028,3.028h-2a1.027,1.027,0,0,1-1.027-1.027Zm3.535,14.62A1.028,1.028,0,0,1,57.7,16.873H46.689a1.028,1.028,0,0,1-1.027-1.027V1.745A1.028,1.028,0,0,1,46.689.718h7.786V3.227A1.745,1.745,0,0,0,56.22,4.972h2.509V15.846Z" transform="translate(-44.944)"/></g><g transform="translate(3.014 10.436)"><g transform="translate(0)"><path class="a" d="M133.182,303.745h-.161a.359.359,0,1,0,0,.718h.161a.359.359,0,1,0,0-.718Z" transform="translate(-132.662 -303.745)"/></g></g><g transform="translate(4.336 10.436)"><path class="a" d="M177.938,303.745H171.5a.359.359,0,1,0,0,.718h6.435a.359.359,0,1,0,0-.718Z" transform="translate(-171.144 -303.745)"/></g><g transform="translate(3.014 8.795)"><g transform="translate(0)"><path class="a" d="M133.182,256h-.161a.359.359,0,1,0,0,.718h.161a.359.359,0,1,0,0-.718Z" transform="translate(-132.662 -256)"/></g></g><g transform="translate(4.336 8.795)"><path class="a" d="M177.938,256H171.5a.359.359,0,1,0,0,.718h6.435a.359.359,0,1,0,0-.718Z" transform="translate(-171.144 -256)"/></g><g transform="translate(3.014 7.155)"><g transform="translate(0)"><path class="a" d="M133.182,208.255h-.161a.359.359,0,0,0,0,.718h.161a.359.359,0,0,0,0-.718Z" transform="translate(-132.662 -208.255)"/></g></g><g transform="translate(4.336 7.155)"><path class="a" d="M177.938,208.255H171.5a.359.359,0,0,0,0,.718h6.435a.359.359,0,1,0,0-.718Z" transform="translate(-171.144 -208.255)"/></g></svg>