<svg xmlns="http://www.w3.org/2000/svg" width="27.849" height="34.023" viewBox="0 0 27.849 34.023"><defs><style>.a{fill:#030104;}</style></defs><g transform="translate(0 0)"><path class="a" d="M7.987,10.673A2.267,2.267,0,0,0,8.5,11.788c.5,3.5,3.644,6.483,6.168,6.358,3.21-.158,5.485-3.617,6-6.358a2.8,2.8,0,0,0,.537-1.231A2.869,2.869,0,0,0,21.1,8.478c-.022-.026-.167-.159-.192-.181.361-1.3,1.154-3.626-.821-5.715a9.19,9.19,0,0,0-3.9-2.149C12.228-.891,9.429.966,8.137,4.055A6.311,6.311,0,0,0,8.171,8.3a.748.748,0,0,0-.189.181C7.6,8.978,7.849,10.045,7.987,10.673Z" transform="translate(-0.654 0)"/><path class="a" d="M30.191,25.811c-.11-2.409-.247-6.227-2.351-9.35A4.664,4.664,0,0,0,25.816,15.1,20.583,20.583,0,0,1,21.3,13.141l-.65.445.072,4.225-3.9,10.416a.583.583,0,0,1-1.092,0l-3.9-10.416s.072-4.212.071-4.225c.009.035-.651-.445-.651-.445A20.528,20.528,0,0,1,6.738,15.1a4.664,4.664,0,0,0-2.023,1.361c-2.1,3.123-2.242,6.941-2.353,9.35-.076,1.665.273,2.286.712,2.463,5.443,2.185,20.959,2.185,26.4,0C29.919,28.1,30.266,27.476,30.191,25.811Z" transform="translate(-2.352 4.111)"/><path class="a" d="M13.512,14.919l-.176,0a5.217,5.217,0,0,1-1.7-.3l1.547,2.367-1.388,1.339L13.222,27a.153.153,0,0,0,.152.129A.155.155,0,0,0,13.527,27l1.428-8.674-1.389-1.339,1.524-2.332A6.535,6.535,0,0,1,13.512,14.919Z" transform="translate(0.552 4.573)"/></g></svg>